<?xml version="1.0" encoding="UTF-8" standalone="no"?>
<svg
   width="302"
   height="85.573"
   viewBox="0 0 302 85.573"
   version="1.1"
   id="svg6"
   sodipodi:docname="preloader2.svg"
   inkscape:version="1.3.2 (091e20e, 2023-11-25, custom)"
   xmlns:inkscape="http://www.inkscape.org/namespaces/inkscape"
   xmlns:sodipodi="http://sodipodi.sourceforge.net/DTD/sodipodi-0.dtd"
   xmlns="http://www.w3.org/2000/svg"
   xmlns:svg="http://www.w3.org/2000/svg">
  <defs
     id="defs6" />
  <sodipodi:namedview
     id="namedview6"
     pagecolor="#ffffff"
     bordercolor="#000000"
     borderopacity="0.25"
     inkscape:showpageshadow="2"
     inkscape:pageopacity="0.0"
     inkscape:pagecheckerboard="0"
     inkscape:deskcolor="#d1d1d1"
     inkscape:zoom="1.5851367"
     inkscape:cx="151.09107"
     inkscape:cy="42.583077"
     inkscape:window-width="1920"
     inkscape:window-height="991"
     inkscape:window-x="-9"
     inkscape:window-y="-9"
     inkscape:window-maximized="1"
     inkscape:current-layer="svg6" />
  <path
     id="rect7"
     style="fill:#1a1a1a;stroke:#ffffff;stroke-width:0;fill-opacity:1"
     d="M 0.63085938 0 L 0.63085938 85.796875 L 302.18164 85.796875 L 302.18164 0 L 0.63085938 0 z M 21.382812 20.248047 C 26.161468 20.248047 30.597325 22.296124 33.583984 26.050781 C 34.095987 26.648114 34.011998 27.332355 33.5 27.929688 L 32.134766 29.464844 C 31.366767 30.318175 30.853936 30.232841 30.085938 29.464844 C 27.44061 26.734182 24.710664 25.453125 21.638672 25.453125 C 17.798681 25.453125 14.470703 27.330535 14.470703 31.255859 C 14.470703 35.266516 17.372015 36.717769 21.638672 38.509766 L 25.734375 40.216797 C 31.195696 42.435459 35.546875 45.592806 35.546875 52.078125 C 35.546875 59.928772 28.80619 64.109375 21.296875 64.109375 C 14.555559 64.109375 10.03251 60.781581 7.7285156 57.794922 C 7.1311868 57.112257 7.1305791 56.430109 7.6425781 55.662109 L 8.9238281 53.955078 C 9.4358271 53.272414 10.204053 53.272414 10.886719 53.955078 C 13.446712 56.685738 16.518965 58.648438 21.126953 58.648438 C 25.990941 58.648437 29.488281 56.516052 29.488281 52.164062 C 29.488281 48.238738 26.843293 46.361565 22.917969 44.740234 L 17.96875 42.691406 C 12.848762 40.558077 8.5820312 37.401052 8.5820312 31.427734 C 8.5820313 24.51575 14.385495 20.248047 21.382812 20.248047 z M 65.669922 20.248047 C 77.787226 20.248047 87.003906 29.721051 87.003906 42.179688 C 87.003906 54.638324 77.787226 64.109375 65.669922 64.109375 C 53.467285 64.109375 44.251953 54.638324 44.251953 42.179688 C 44.251953 29.721051 53.467285 20.248047 65.669922 20.248047 z M 163.46289 20.248047 C 169.26554 20.248047 173.61667 22.980087 175.75 28.441406 C 177.88333 23.918751 181.80797 20.248047 188.89062 20.248047 C 197.50928 20.248047 202.71484 25.880698 202.71484 36.888672 L 202.71484 61.890625 C 202.71484 62.658623 202.37347 63.085938 201.60547 63.085938 L 197.68164 63.085938 C 196.91364 63.085938 196.57227 62.658623 196.57227 61.890625 L 196.57227 37.572266 C 196.57227 30.233616 193.58404 25.966797 187.52539 25.966797 C 181.38142 25.966797 177.20117 30.31895 177.20117 37.572266 L 177.20117 61.890625 C 177.20117 62.658623 176.8598 63.085938 176.0918 63.085938 L 172.16602 63.085938 C 171.39802 63.085938 171.05664 62.658623 171.05664 61.890625 L 171.05664 37.572266 C 171.05664 30.233616 167.64265 25.966797 161.58398 25.966797 C 155.35467 25.966797 151.68555 30.31895 151.68555 37.572266 L 151.68555 61.890625 C 151.68555 62.658623 151.34417 63.085938 150.57617 63.085938 L 146.65234 63.085938 C 145.88434 63.085938 145.54297 62.658623 145.54297 61.890625 L 145.54297 22.466797 C 145.54297 21.6988 145.88434 21.273438 146.65234 21.273438 L 150.23633 21.273438 C 151.08967 21.273437 151.42969 21.614069 151.42969 22.552734 L 151.60156 27.332031 C 153.64956 23.406708 157.31892 20.248047 163.46289 20.248047 z M 274.22461 20.248047 C 281.73393 20.248047 287.19559 23.918189 290.26758 29.464844 L 290.4375 22.466797 C 290.4375 21.6988 290.77888 21.273438 291.54688 21.273438 L 295.2168 21.273438 C 295.9848 21.273438 296.32617 21.6988 296.32617 22.466797 L 296.32617 61.890625 C 296.32617 62.658623 295.9848 63.085938 295.2168 63.085938 L 291.54688 63.085938 C 290.77888 63.085938 290.4375 62.658623 290.4375 61.890625 L 290.26758 55.064453 C 287.19559 60.696439 281.73393 64.109375 274.22461 64.109375 C 262.02197 64.109375 253.66016 54.723657 253.66016 42.179688 C 253.66016 29.721051 262.02197 20.248047 274.22461 20.248047 z M 98.523438 21.273438 L 102.44922 21.273438 C 103.21722 21.273438 103.55859 21.6988 103.55859 22.466797 L 103.55859 46.445312 C 103.55859 53.869295 107.39855 58.392578 114.31055 58.392578 C 121.22253 58.392578 126.51367 53.869295 126.51367 46.445312 L 126.51367 22.466797 C 126.51367 21.6988 126.76911 21.273438 127.53711 21.273438 L 131.54688 21.273438 C 132.31486 21.273438 132.65625 21.6988 132.65625 22.466797 L 132.65625 61.890625 C 132.65625 62.658623 132.31486 63.085938 131.54688 63.085938 L 127.87891 63.085938 C 127.02557 63.085937 126.76889 62.745305 126.68359 61.806641 L 126.51367 56.429688 C 124.12434 60.696343 119.5155 64.109375 112.60352 64.109375 C 103.5582 64.109375 97.414062 58.136276 97.414062 47.042969 L 97.414062 22.466797 C 97.414062 21.6988 97.755438 21.273438 98.523438 21.273438 z M 210.82227 21.273438 L 214.74805 21.273438 C 215.43072 21.273437 215.85728 21.61421 216.11328 22.296875 L 228.99805 56.259766 L 241.96875 22.296875 C 242.22475 21.61421 242.65133 21.273438 243.33398 21.273438 L 247.25977 21.273438 C 248.19842 21.273438 248.5386 21.783992 248.19727 22.722656 L 226.18164 78.275391 C 225.92564 78.958055 225.41509 79.298828 224.73242 79.298828 L 220.89062 79.298828 C 220.03731 79.298828 219.69773 78.787529 220.03906 78.019531 L 225.92578 63.255859 L 209.88281 22.722656 C 209.54147 21.783992 209.88361 21.273438 210.82227 21.273438 z M 65.669922 25.966797 C 56.795277 25.966797 50.224609 32.70771 50.224609 42.179688 C 50.224609 51.651664 56.795277 58.392578 65.669922 58.392578 C 74.459234 58.392578 81.029297 51.651664 81.029297 42.179688 C 81.029297 32.70771 74.459234 25.966797 65.669922 25.966797 z M 275.07812 25.966797 C 266.11814 25.966797 259.63281 32.537043 259.63281 42.179688 C 259.63281 51.907664 266.11814 58.392578 275.07812 58.392578 C 284.03811 58.392578 290.26758 51.992253 290.26758 42.349609 C 290.26758 32.621633 284.03811 25.966797 275.07812 25.966797 z " />
</svg>
