<?xml version="1.0" encoding="UTF-8" standalone="no"?>
<svg
   width="34.934"
   height="27.721"
   fill="#fff"
   version="1.1"
   id="svg5"
   sodipodi:docname="adeola-logo-mobile.svg"
   inkscape:version="1.3.2 (091e20e, 2023-11-25, custom)"
   xmlns:inkscape="http://www.inkscape.org/namespaces/inkscape"
   xmlns:sodipodi="http://sodipodi.sourceforge.net/DTD/sodipodi-0.dtd"
   xmlns="http://www.w3.org/2000/svg"
   xmlns:svg="http://www.w3.org/2000/svg">
  <defs
     id="defs5" />
  <sodipodi:namedview
     id="namedview5"
     pagecolor="#ffffff"
     bordercolor="#000000"
     borderopacity="0.25"
     inkscape:showpageshadow="2"
     inkscape:pageopacity="0.0"
     inkscape:pagecheckerboard="0"
     inkscape:deskcolor="#d1d1d1"
     inkscape:zoom="9.9098509"
     inkscape:cx="7.4673172"
     inkscape:cy="25.277878"
     inkscape:window-width="1920"
     inkscape:window-height="991"
     inkscape:window-x="-9"
     inkscape:window-y="-9"
     inkscape:window-maximized="1"
     inkscape:current-layer="svg5" />
  <g
     id="g10"
     transform="matrix(1.5428937,0,0,1.5428937,1.5703963,-5.3147864)"
     style="stroke-width:0;stroke-dasharray:none;stroke:#ffffff;stroke-opacity:1;fill:#ffffff;fill-opacity:1">
    <path
       d="m 7.3863617,6.4405306 h 1.59375 v 6.3750004 h -1.59375 v -0.673828 q -0.46875,0.445312 -0.94336,0.644531 -0.46875,0.193359 -1.019531,0.193359 -1.236328,0 -2.138672,-0.955078 -0.902343,-0.960937 -0.902343,-2.3847654 0,-1.476563 0.873046,-2.419922 0.873047,-0.94336 2.121094,-0.94336 0.574219,0 1.078125,0.216797 0.503906,0.216797 0.931641,0.650391 z m -1.681641,1.3125 q -0.74414,0 -1.236328,0.527344 -0.492187,0.521484 -0.492187,1.341797 0,0.8261714 0.498046,1.3593754 0.503907,0.533203 1.236329,0.533203 0.755859,0 1.253906,-0.521485 0.498047,-0.527343 0.498047,-1.3769534 0,-0.832031 -0.498047,-1.347656 -0.498047,-0.515625 -1.259766,-0.515625 z"
       id="text5"
       style="font-weight:bold;font-size:12px;font-family:'Century Gothic';-inkscape-font-specification:'Century Gothic Bold';fill:#ffffff;stroke:#ffffff;stroke-width:0;stroke-dasharray:none;stroke-opacity:1;fill-opacity:1"
       aria-label="a" />
    <path
       d="m 12.79742,4.1244627 h 1.59375 V 12.9604 h -1.59375 v -0.673828 q -0.46875,0.445313 -0.943359,0.644532 -0.46875,0.193359 -1.019532,0.193359 -1.2363277,0 -2.1386707,-0.955078 -0.902344,-0.960938 -0.902344,-2.3847663 0,-1.476562 0.873047,-2.419922 0.873047,-0.943359 2.1210927,-0.943359 0.574219,0 1.078125,0.216797 0.503907,0.216797 0.931641,0.65039 z m -1.681641,3.773437 q -0.74414,0 -1.2363279,0.527344 -0.4921868,0.521485 -0.4921868,1.341797 0,0.8261723 0.4980468,1.3593753 0.5039059,0.533203 1.2363279,0.533203 0.755859,0 1.253906,-0.521484 0.498047,-0.527344 0.498047,-1.3769533 0,-0.832032 -0.498047,-1.347657 -0.498047,-0.515625 -1.259766,-0.515625 z"
       id="text6"
       style="font-weight:bold;font-size:12px;font-family:'Century Gothic';-inkscape-font-specification:'Century Gothic Bold';fill:#ffffff;stroke:#ffffff;stroke-width:0;stroke-dasharray:none;stroke-opacity:1;fill-opacity:1"
       aria-label="d" />
    <path
       d="m 16.081328,3.9124075 q 0.421875,0 0.720703,0.304688 0.304687,0.304687 0.304687,0.738281 0,0.427734 -0.298828,0.732422 -0.298828,0.298828 -0.714843,0.298828 -0.427735,0 -0.732422,-0.304688 -0.298828,-0.310547 -0.298828,-0.75 0,-0.421875 0.298828,-0.720703 0.298828,-0.298828 0.720703,-0.298828 z m -0.802735,2.625 h 1.605469 v 6.3750005 h -1.605469 z"
       id="text7"
       style="font-weight:bold;font-size:12px;font-family:'Century Gothic';-inkscape-font-specification:'Century Gothic Bold';fill:#ffffff;stroke:#ffffff;stroke-width:0;stroke-dasharray:none;stroke-opacity:1;fill-opacity:1"
       aria-label="i" />
    <path
       d="m 6.0657706,11.589299 h 1.59375 v 2.349609 h 0.949219 v 1.376953 h -0.949219 v 4.998047 h -1.59375 v -4.998047 h -0.820312 v -1.376953 h 0.820312 z"
       id="text8"
       style="font-weight:bold;font-size:12px;font-family:'Century Gothic';-inkscape-font-specification:'Century Gothic Bold';fill:#ffffff;stroke:#ffffff;stroke-width:0;stroke-dasharray:none;stroke-opacity:1;fill-opacity:1"
       aria-label="t" />
    <path
       d="m 8.3621477,13.167956 h 1.3343278 l 1.3534595,3.266474 1.492152,-3.266474 h 1.33911 l -3.26169,7.106852 H 9.2708299 l 1.0712891,-2.290835 z"
       id="text9"
       style="font-weight:bold;font-size:12px;font-family:'Century Gothic';-inkscape-font-specification:'Century Gothic Bold';fill:#ffffff;stroke:#ffffff;stroke-width:0;stroke-dasharray:none;stroke-opacity:1;fill-opacity:1"
       aria-label="y" />
    <path
       d="m 15.592721,13.561453 h 1.59375 v 6.375 h -1.59375 v -0.673829 c -0.3125,0.296875 -0.626953,0.511719 -0.94336,0.644532 -0.3125,0.128906 -0.652344,0.193359 -1.019531,0.193359 -0.824219,0 -1.537109,-0.318359 -2.138672,-0.955078 -0.601562,-0.640625 -0.902344,-1.435547 -0.902344,-2.384766 0,-0.269932 0.02188,-0.5265 0.06565,-0.769703 0.115837,-0.643696 0.38497,-1.193769 0.807398,-1.650219 0.582031,-0.628906 1.289063,-0.943359 2.121094,-0.943359 0.382813,0 0.742188,0.07227 1.078125,0.216797 0.335937,0.144531 0.646484,0.361328 0.931641,0.650391 z m -1.681641,1.3125 c -0.496094,0 -0.908203,0.175781 -1.236328,0.527343 -0.328125,0.347657 -0.492188,0.794922 -0.492188,1.341797 0,0.550781 0.166016,1.003906 0.498047,1.359375 0.335937,0.355469 0.748047,0.533203 1.236328,0.533203 0.503907,0 0.921876,-0.173828 1.253907,-0.521484 0.332031,-0.351563 0.498046,-0.810547 0.498046,-1.376953 0,-0.554687 -0.166015,-1.003906 -0.498046,-1.347656 -0.332031,-0.34375 -0.751953,-0.515625 -1.259766,-0.515625 z"
       id="text10"
       style="font-weight:bold;font-size:12px;font-family:'Century Gothic';-inkscape-font-specification:'Century Gothic Bold';fill:#ffffff;stroke:#ffffff;stroke-width:0;stroke-dasharray:none;stroke-opacity:1;fill-opacity:1"
       aria-label="a"
       sodipodi:nodetypes="ccccccscsssssccscscscsss" />
  </g>
</svg>
