 <svg id="logo"
        xmlns="http://www.w3.org/2000/svg" 
        width="302" 
        height="85.573" 
        viewBox="0 0 302 85.573">
        <g transform="translate(1 1.014)">
            <path
            d="m 31.886,6.606 h 1.083 a 32.886,32.886 0 0 1 21.748,8.638 V 6.911 A 0.335,0.335 0 0 1 55.078,6.55 h 9.777 c 0.25,0 0.361,0 0.361,0.361 v 64.522 c 0,0.25 0,0.389 -0.361,0.389 h -9.777 c -0.25,0 -0.361,-0.139 -0.361,-0.389 V 63.1 a 31.719,31.719 0 0 1 -21,8.666 h -2.775 q -12,0 -23.026,-11.11 A 33.33,33.33 0 0 1 0,39.769 V 38.825 A 32,32 0 0 1 13.638,12.688 31.525,31.525 0 0 1 31.886,6.606 Z M 10.5,38.658 v 1.111 c 0,7.722 3.75,13.888 11.249,18.776 a 20.332,20.332 0 0 0 9.751,2.778 h 1.83 A 21.137,21.137 0 0 0 50.468,52.24 21.081,21.081 0 0 0 54.523,40.074 v -1.721 c 0,-8.166 -4.277,-14.665 -12.888,-19.443 A 25,25 0 0 0 32.8,17.077 H 32.244 A 22,22 0 0 0 10.5,38.63 Z"
            transform="translate(0,11.654)"
            stroke="#09f755"
            stroke-width="2"
            id="path1" />
         <path
            d="m 76.039,0.011 h 9.749 a 0.335,0.335 0 0 1 0.361,0.361 v 82.715 c 0,0.25 0,0.389 -0.361,0.389 H 76.039 A 0.361,0.361 0 0 1 75.65,83.087 V 74.754 A 31.719,31.719 0 0 1 54.6,83.476 h -2.781 q -12.054,0 -23.026,-11.11 a 33.33,33.33 0 0 1 -7.944,-21 V 50.422 A 32,32 0 0 1 34.488,24.287 31.525,31.525 0 0 1 52.736,18.2 h 1.111 a 32.858,32.858 0 0 1 21.72,8.638 V 0.372 a 0.361,0.361 0 0 1 0.472,-0.361 z m -44.607,50.3 v 1.111 c 0,7.722 3.75,13.888 11.249,18.776 a 20.415,20.415 0 0 0 9.777,2.778 h 1.833 A 21.742,21.742 0 0 0 75.484,51.729 v -1.722 q 0,-12.249 -12.915,-19.443 A 25,25 0 0 0 53.737,28.731 H 53.18 A 22,22 0 0 0 31.432,50.284 Z"
            transform="translate(37.061)"
            stroke="#09f755"
            stroke-width="2"
            id="path2" />
         <path
            d="m 136.92468,23.665478 q 2.8161,0 4.81084,2.03385 2.03385,2.03385 2.03385,4.928175 0,2.855212 -1.99474,4.889063 -1.99474,1.994737 -4.77172,1.994737 -2.85522,0 -4.88907,-2.03385 -1.99474,-2.072963 -1.99474,-5.0064 0,-2.8161 1.99474,-4.810838 1.99474,-1.994737 4.81084,-1.994737 z m -5.35841,17.5224 h 10.71682 v 42.554401 h -10.71682 z"
            id="text6"
            stroke="#09f755"
            stroke-width="2"
            aria-label="i"
            inkscape:label="path3" />
         <path
            d="m 156.19826,1.1807113 h 11.44718 V 23.114886 h 8.00899 v 10.854193 h -8.00899 V 82.627063 H 156.19826 V 33.969079 h -8.92134 V 23.114886 h 8.92134 z"
            id="text7"
            stroke="#09f755"
            stroke-width="2"
            aria-label="t"
            inkscape:label="path4" />
         <path
            d="m 170.3361,20.565537 h 11.62499 l 11.79166,28.458321 13,-28.458321 h 11.66666 l -28.41665,61.916641 h -11.75 l 9.33333,-19.958325 z"
            id="text8"
            stroke="#09f755"
            stroke-width="2"
            aria-label="y"
            inkscape:label="path5" />
         <path
            d="m 234.30079,19.375214 h 1.112 a 32.886,32.886 0 0 1 21.748,8.638 v -8.333 c 0,-0.25 0,-0.361 0.361,-0.361 h 9.777 c 0.25,0 0.361,0 0.361,0.361 v 64.522 c 0,0.25 0,0.389 -0.361,0.389 h -9.777 c -0.25,0 -0.361,-0.139 -0.361,-0.389 v -8.333 a 31.719,31.719 0 0 1 -21,8.666 h -2.778 q -12,0 -23.026,-11.11 a 33.33,33.33 0 0 1 -7.916,-21 v -0.944 a 31.941,31.941 0 0 1 13.64,-26.135 31.5,31.5 0 0 1 18.22,-5.971 z m -21.388,32.052 v 1.111 c 0,7.722 3.75,13.888 11.11,18.776 a 20.248,20.248 0 0 0 9.749,2.778 h 1.833 a 21.97,21.97 0 0 0 21.192,-21.387 v -1.583 q 0.002,-12.253 -12.884,-19.443 a 25,25 0 0 0 -8.833,-1.833 h -0.555 a 22,22 0 0 0 -21.75,21.553 z"
            stroke="#09f755"
            stroke-width="2"
            id="path6" />
        </g>
    </svg>