<?xml version="1.0" encoding="UTF-8" standalone="no"?>
<svg
   width="34.934"
   height="27.721"
   fill="#fff"
   version="1.1"
   id="svg5"
   sodipodi:docname="soumya-logo-mobile.svg"
   inkscape:version="1.3.2 (091e20e, 2023-11-25, custom)"
   xmlns:inkscape="http://www.inkscape.org/namespaces/inkscape"
   xmlns:sodipodi="http://sodipodi.sourceforge.net/DTD/sodipodi-0.dtd"
   xmlns="http://www.w3.org/2000/svg"
   xmlns:svg="http://www.w3.org/2000/svg">
  <defs
     id="defs5" />
  <sodipodi:namedview
     id="namedview5"
     pagecolor="#ffffff"
     bordercolor="#000000"
     borderopacity="0.25"
     inkscape:showpageshadow="2"
     inkscape:pageopacity="0.0"
     inkscape:pagecheckerboard="0"
     inkscape:deskcolor="#d1d1d1"
     inkscape:zoom="9.9098509"
     inkscape:cx="17.154648"
     inkscape:cy="25.277878"
     inkscape:window-width="1920"
     inkscape:window-height="991"
     inkscape:window-x="-9"
     inkscape:window-y="-9"
     inkscape:window-maximized="1"
     inkscape:current-layer="g10" />
  <g
     id="g10"
     transform="matrix(1.5428937,0,0,1.5428937,5.2031453,-4.4065996)"
     style="fill:#ffffff;fill-opacity:1;stroke:#ffffff;stroke-width:0;stroke-dasharray:none;stroke-opacity:1">
    <path
       d="m 17.554807,13.169036 h 1.59375 v 6.375 h -1.59375 v -0.673829 c -0.3125,0.296875 -0.626953,0.511719 -0.94336,0.644532 -0.3125,0.128906 -0.652344,0.193359 -1.019531,0.193359 -0.824219,0 -1.537109,-0.318359 -2.138672,-0.955078 -0.601562,-0.640625 -0.902344,-1.435547 -0.902344,-2.384766 0,-0.269932 0.02188,-0.5265 0.06565,-0.769703 0.115837,-0.643696 0.38497,-1.193769 0.807398,-1.650219 0.582031,-0.628906 1.289063,-0.943359 2.121094,-0.943359 0.382813,0 0.742188,0.07227 1.078125,0.216797 0.335937,0.144531 0.646484,0.361328 0.931641,0.650391 z m -1.681641,1.3125 c -0.496094,0 -0.908203,0.175781 -1.236328,0.527343 -0.328125,0.347657 -0.492188,0.794922 -0.492188,1.341797 0,0.550781 0.166016,1.003906 0.498047,1.359375 0.335937,0.355469 0.748047,0.533203 1.236328,0.533203 0.503907,0 0.921876,-0.173828 1.253907,-0.521484 0.332031,-0.351563 0.498046,-0.810547 0.498046,-1.376953 0,-0.554687 -0.166015,-1.003906 -0.498046,-1.347656 -0.332031,-0.34375 -0.751953,-0.515625 -1.259766,-0.515625 z"
       id="text10"
       style="font-weight:bold;font-size:12px;font-family:'Century Gothic';-inkscape-font-specification:'Century Gothic Bold';fill:#00ff00;fill-opacity:1;stroke:#ffffff;stroke-width:0;stroke-dasharray:none;stroke-opacity:1"
       aria-label="a"
       sodipodi:nodetypes="ccccccscsssssccscscscsss" />
    <path
       d="M 7.583211,4.3964514 6.1827554,5.796907 Q 5.3292234,4.9516616 4.633139,4.9516616 q -0.3811891,0 -0.5966438,0.1657344 -0.2154547,0.1574476 -0.2154547,0.3977625 0,0.1823078 0.1325875,0.3397555 0.1408742,0.1491609 0.679511,0.4143359 l 0.8286719,0.414336 q 1.3093016,0.6463641 1.798218,1.3175884 0.4889165,0.6712242 0.4889165,1.5744766 0,1.2015741 -0.886679,2.0053861 -0.8783922,0.803812 -2.361715,0.803812 -1.9722391,0 -3.1489533,-1.54133 L 2.743767,9.3270493 q 0.3977625,0.4640563 0.9281125,0.7540917 0.5386368,0.281748 0.9529727,0.281748 0.4474829,0 0.7209446,-0.215454 0.2734617,-0.2154552 0.2734617,-0.4972036 0,-0.5220633 -0.9861195,-1.0192665 L 3.8707608,8.2497758 Q 1.6830669,7.1476422 1.6830669,5.4902983 q 0,-1.0689867 0.8203852,-1.8230782 0.8286719,-0.7623782 2.1131134,-0.7623782 0.8783923,0 1.6490571,0.3894759 0.7789516,0.381189 1.3175884,1.1021336 z"
       id="text1"
       style="font-weight:bold;font-size:16.9712px;font-family:'Century Gothic';-inkscape-font-specification:'Century Gothic Bold';fill:#00ff00"
       transform="scale(0.98989956,1.0102035)"
       aria-label="s" />
    <path
       d="m 14.634028,5.7503357 h 1.584103 v 3.0074991 q 0,0.8781439 0.120529,1.222514 0.12053,0.3386302 0.384547,0.5280342 0.269757,0.189404 0.660043,0.189404 0.390286,0 0.660042,-0.183664 0.275497,-0.189404 0.407505,-0.5509927 0.09757,-0.2697566 0.09757,-1.1536399 V 5.7503357 h 1.572623 v 2.6459105 q 0,1.6357578 -0.258277,2.2384058 -0.315673,0.734656 -0.9298,1.130682 -0.614126,0.390286 -1.561144,0.390286 -1.027371,0 -1.664456,-0.45916 Q 15.07597,11.2373 14.817692,10.416551 14.634028,9.8483403 14.634028,8.3503302 Z"
       id="text3"
       style="font-weight:bold;font-size:11.7545px;font-family:'Century Gothic';-inkscape-font-specification:'Century Gothic Bold';fill:#00ff00"
       transform="scale(0.97157786,1.0292536)"
       aria-label="u" />
    <path
       d="m 10.617646,6.2509115 q 0.901547,0 1.691864,0.4507734 0.796171,0.4507733 1.24109,1.2235276 0.444919,0.7727543 0.444919,1.6684468 0,0.9015467 -0.450773,1.6860097 -0.444919,0.784462 -1.217673,1.229381 -0.772755,0.439065 -1.703572,0.439065 -1.369883,0 -2.34168,-0.971797 -0.9659429,-0.977651 -0.9659429,-2.3709503 0,-1.4928208 1.0947352,-2.4880347 Q 9.370702,6.2509115 10.617646,6.2509115 Z m 0.02342,1.5045292 q -0.7434831,0 -1.24109,0.5210237 -0.4917527,0.5151696 -0.4917527,1.3230491 0,0.8312965 0.4858985,1.3464655 0.4917527,0.51517 1.2410902,0.51517 0.749338,0 1.246944,-0.521024 0.497607,-0.521024 0.497607,-1.3406115 0,-0.8195879 -0.491752,-1.3289033 -0.485899,-0.5151695 -1.246945,-0.5151695 z"
       id="text2"
       style="font-weight:bold;font-size:11.9894px;font-family:'Century Gothic';-inkscape-font-specification:'Century Gothic Bold';fill:#00ff00"
       transform="scale(1.0403591,0.96120657)"
       aria-label="o" />
    <path
       d="M 0.55122276,13.520415 H 1.9295845 v 0.628815 q 0.3521363,-0.38735 0.7797303,-0.57851 0.4326245,-0.191159 0.9407067,-0.191159 0.5131128,0 0.9256152,0.251525 0.4125025,0.251526 0.6640283,0.734456 0.3269837,-0.48293 0.7998523,-0.734456 0.4778992,-0.251525 1.0413171,-0.251525 0.5835401,0 1.0262256,0.271647 0.4426855,0.271648 0.6338452,0.709303 0.1961902,0.437655 0.1961902,1.423637 v 3.20947 H 7.5537031 v -2.776846 q 0,-0.930645 -0.2314038,-1.257629 -0.2314038,-0.332014 -0.6942114,-0.332014 -0.3521363,0 -0.6338452,0.201221 -0.2766785,0.20122 -0.4125025,0.558387 -0.1358239,0.352136 -0.1358239,1.136897 v 2.469984 H 4.062524 v -2.651083 q 0,-0.734455 -0.1106714,-1.061439 -0.1056409,-0.332014 -0.3219531,-0.492991 -0.2163123,-0.160976 -0.5231739,-0.160976 -0.3420752,0 -0.6237841,0.206251 -0.2766785,0.201221 -0.417533,0.568449 -0.135824,0.367227 -0.135824,1.157019 v 2.43477 H 0.55122276 Z"
       id="text4"
       style="font-weight:bold;font-size:10.3025px;font-family:'Century Gothic';-inkscape-font-specification:'Century Gothic Bold';fill:#00ff00"
       transform="scale(0.98890156,1.011223)"
       aria-label="m" />
    <path
       d="m 6.4672154,14.050122 h 1.7056872 l 1.7301416,4.175571 1.9074348,-4.175571 h 1.711801 l -4.1694575,9.084771 h -1.724028 l 1.3694406,-2.928402 z"
       id="text5"
       style="font-weight:bold;font-size:12.5206px;font-family:'Century Gothic';-inkscape-font-specification:'Century Gothic Bold';fill:#00ff00"
       transform="scale(1.066159,0.9379464)"
       aria-label="y" />
  </g>
</svg>
